<svg viewBox="0 0 150 150" fill="none" xmlns="http://www.w3.org/2000/svg">
<g clip-path="url(#clip0_6_24)">
<path d="M102.375 28.1719H103.06C107.764 28.1774 112.272 30.0294 115.595 33.3206C118.918 36.6118 120.783 41.073 120.78 45.7233C120.785 46.8781 120.672 48.0304 120.443 49.1627C119.787 52.394 118.225 55.3776 115.934 57.7719C113.644 60.1662 110.718 61.8745 107.491 62.7012C104.265 63.528 100.868 63.4398 97.6896 62.4468C94.5113 61.4538 91.68 59.5961 89.5197 57.0863C87.3595 54.5765 85.9576 51.516 85.4744 48.2552C84.9913 44.9943 85.4464 41.6648 86.7878 38.6478C88.1292 35.6308 90.3026 33.0482 93.0592 31.1955C95.8159 29.3428 99.0444 28.295 102.375 28.1719Z" fill="#00C0F3"/>
<path d="M76.5074 72.0296L66.6726 110.416C66.8096 107.81 61.8447 100.827 54.6135 93.6666C47.3823 86.5064 40.3198 81.6183 37.6845 81.7538L76.5074 72.0296Z" fill="#F283B4"/>
<path d="M61.0857 110.145C61.0905 111.974 60.8495 113.797 60.3689 115.564C59.3635 119.201 57.3906 122.505 54.6557 125.132C50.6172 128.994 45.2317 131.173 39.6135 131.219C37.2638 132.136 34.761 132.61 32.2347 132.615C27.6915 132.615 21.5671 132.396 18.2361 129.906C15.896 126.779 16.4757 121.568 16.4757 117.399C16.4741 115.124 16.8884 112.868 17.6985 110.739C17.6985 110.53 17.6985 110.311 17.6985 110.113C17.6995 104.861 19.7061 99.802 23.317 95.9491C26.0756 93.0056 29.6089 90.8799 33.5207 89.8103C35.4258 89.3075 37.3888 89.0518 39.3605 89.0495C42.1881 89.0233 44.9932 89.5484 47.6155 90.5945C50.2379 91.6406 52.6261 93.1874 54.6436 95.1464C56.6611 97.1054 58.2685 99.4383 59.3739 102.012C60.4792 104.585 61.0609 107.349 61.0857 110.145Z" fill="url(#paint0_linear_6_24)" fill-opacity="0.85"/>
<path d="M103.018 29.7144H102.807C102.55 29.7144 102.304 29.8154 102.122 29.9953C101.94 30.1751 101.838 30.419 101.838 30.6733C101.838 30.9276 101.94 31.1715 102.122 31.3513C102.304 31.5311 102.55 31.6322 102.807 31.6322C102.985 31.6341 103.16 31.5886 103.314 31.5006C103.468 31.4126 103.595 31.2852 103.682 31.1319C103.755 30.9998 103.794 30.8528 103.799 30.7027C103.803 30.5526 103.772 30.4037 103.707 30.2678C103.642 30.1319 103.546 30.0129 103.427 29.9204C103.307 29.8279 103.167 29.7645 103.018 29.7353V29.7144ZM114.455 34.8214C114.265 34.8255 114.079 34.8852 113.922 34.9931C113.766 35.1009 113.645 35.252 113.575 35.4276C113.504 35.6031 113.488 35.7952 113.528 35.9798C113.568 36.1644 113.662 36.3333 113.798 36.4653C113.935 36.5974 114.107 36.6866 114.295 36.722C114.482 36.7573 114.676 36.7371 114.852 36.664C115.028 36.5909 115.179 36.468 115.284 36.3108C115.39 36.1536 115.446 35.969 115.446 35.7803C115.445 35.653 115.418 35.5272 115.368 35.4101C115.317 35.2931 115.244 35.187 115.152 35.0979C115.06 35.0089 114.951 34.9387 114.831 34.8912C114.712 34.8438 114.584 34.8201 114.455 34.8214ZM118.935 46.1611C118.674 46.1583 118.423 46.2574 118.235 46.4369C118.048 46.6165 117.939 46.8619 117.934 47.1199C117.935 47.2466 117.961 47.3718 118.012 47.4882C118.063 47.6045 118.137 47.7097 118.229 47.7974L118.419 47.9329C118.566 48.0073 118.728 48.0465 118.893 48.0475C119.021 48.0475 119.147 48.0227 119.264 47.9745C119.382 47.9263 119.489 47.8557 119.579 47.7667C119.669 47.6776 119.74 47.5719 119.789 47.4556C119.838 47.3393 119.863 47.2146 119.863 47.0887C119.863 46.9627 119.838 46.8381 119.789 46.7217C119.74 46.6054 119.669 46.4997 119.579 46.4106C119.489 46.3216 119.382 46.251 119.264 46.2028C119.147 46.1546 119.021 46.1298 118.893 46.1298L118.935 46.1611ZM91.402 34.5713C91.2116 34.5774 91.0273 34.6388 90.8721 34.7479C90.7168 34.8569 90.5974 35.0087 90.5289 35.1844C90.4603 35.36 90.4455 35.5518 90.4864 35.7357C90.5273 35.9195 90.6221 36.0875 90.7589 36.2185C90.8957 36.3494 91.0685 36.4377 91.2557 36.4722C91.4429 36.5068 91.6363 36.4861 91.8116 36.4126C91.987 36.3392 92.1366 36.2164 92.2419 36.0595C92.3471 35.9025 92.4032 35.7184 92.4033 35.5302C92.402 35.402 92.3749 35.2753 92.3237 35.1576C92.2725 35.0398 92.1982 34.9332 92.1051 34.8441C92.0119 34.7549 91.9018 34.6849 91.7811 34.638C91.6604 34.5912 91.5316 34.5685 91.402 34.5713ZM87.2909 45.9422C87.1001 45.9463 86.9147 46.006 86.758 46.1138C86.6013 46.2216 86.4803 46.3728 86.4101 46.5483C86.3399 46.7239 86.3237 46.916 86.3635 47.1006C86.4033 47.2852 86.4973 47.4541 86.6337 47.5861C86.7701 47.7181 86.9429 47.8074 87.1304 47.8427C87.318 47.8781 87.5119 47.8579 87.6878 47.7848C87.8638 47.7116 88.014 47.5887 88.1197 47.4315C88.2254 47.2743 88.2818 47.0898 88.2818 46.9011C88.2735 46.6476 88.1652 46.4075 87.9799 46.2321C87.7947 46.0568 87.5474 45.9602 87.2909 45.963V45.9422Z" fill="#00AEEF"/>
<path d="M113.733 89.1356L112.012 84.7314C110.045 79.6948 104.32 77.189 99.2263 79.1344L83.0903 85.2971C77.9964 87.2426 75.462 92.9027 77.4296 97.9393L79.1502 102.344C81.1178 107.38 86.8424 109.886 91.9363 107.941L108.072 101.778C113.166 99.8323 115.701 94.1722 113.733 89.1356Z" fill="#5B57A6"/>
<path d="M63.7571 37.9339L58.7737 35.9681C53.9775 34.0761 48.5382 36.3867 46.6247 41.129L40.9257 55.2528C39.0122 59.995 41.3491 65.3731 46.1453 67.2651L51.1288 69.2309C55.925 71.1229 61.3643 68.8123 63.2778 64.07L68.9768 49.9462C70.8903 45.204 68.5534 39.8259 63.7571 37.9339Z" fill="#5B57A6"/>
<path d="M148.103 24.2531C147.433 26.5714 146.641 28.8536 145.731 31.0902C144.062 25.7335 141.307 20.7689 137.635 16.4988C132.365 10.2453 125.935 5.97207 119.884 4.14814C122.488 3.17885 125.028 2.3659 127.484 1.71971C135.232 -0.291828 142.168 -0.594079 147.586 0.948444C150.685 7.22276 150.748 15.123 148.103 24.2531Z" fill="#6DCFF6"/>
<path d="M129.866 24.6908C123.015 16.5821 114.613 11.3605 107.33 9.99514C106.275 10.5371 105.306 11.1103 104.294 11.7044C103.018 12.4548 101.732 13.2365 100.446 14.0495C97.3788 15.9985 94.3008 18.1455 91.2649 20.4801C90.9171 20.7303 90.5692 21.0013 90.2108 21.2722C87.3999 23.454 84.7294 25.6983 82.1996 28.0051C81.6514 28.5054 81.1455 29.0474 80.5657 29.5164C79.986 29.9854 79.5116 30.5586 78.974 31.0485C77.9937 32.0074 77.0239 32.9767 76.1068 33.9459C57.9023 52.9357 49.6803 73.8431 56.3739 85.5788C66.0611 102.567 99.1286 94.0001 125.186 64.7339L126.557 62.9725C129.107 59.6373 131.462 56.3681 133.619 53.165C134.884 51.2889 136.079 49.4407 137.203 47.6202C138.089 46.168 138.932 44.7401 139.733 43.3366C137.939 36.4534 134.563 30.0725 129.866 24.6908ZM120.443 49.1627C119.789 52.3924 118.229 55.3749 115.941 57.7688C113.653 60.1627 110.73 61.8713 107.506 62.6991C104.281 63.5269 100.887 63.4404 97.7097 62.4496C94.5328 61.4587 91.7023 59.6034 89.5421 57.0962C87.3819 54.589 85.9793 51.531 85.4948 48.2724C85.0103 45.0137 85.4635 41.686 86.8026 38.6702C88.1416 35.6543 90.3124 33.0721 93.0664 31.2192C95.8205 29.3663 99.0465 28.3174 102.375 28.1927C102.597 28.1927 102.829 28.1927 103.06 28.1927C107.76 28.1983 112.265 30.0473 115.588 33.3341C118.91 36.6208 120.777 41.0766 120.78 45.7233C120.785 46.8781 120.672 48.0304 120.443 49.1627Z" fill="#6DCFF6"/>
<path d="M53.9497 29.2353L53.5493 29.0253C51.4665 27.9326 48.8822 28.7162 47.7771 30.7755L30.7912 62.4284C29.6861 64.4877 30.4787 67.0429 32.5615 68.1355L32.9619 68.3456C35.0446 69.4382 37.6289 68.6546 38.734 66.5953L55.7199 34.9425C56.825 32.8831 56.0324 30.328 53.9497 29.2353Z" fill="#F84D98"/>
<path d="M116.634 104.345C118.634 103.369 119.455 100.975 118.468 98.9984C117.481 97.0214 115.06 96.2099 113.061 97.1856L82.4726 112.113C80.4732 113.089 79.6524 115.483 80.6393 117.46C81.6261 119.436 84.047 120.248 86.0464 119.272L116.634 104.345Z" fill="#F84D98"/>
<path d="M115.71 45.4628C115.71 45.6087 115.71 45.765 115.71 45.9109C115.623 48.3641 114.808 50.7377 113.366 52.7361C111.924 54.7345 109.92 56.2692 107.602 57.1491C105.285 58.0289 102.756 58.215 100.332 57.6841C97.9086 57.1532 95.6963 55.9288 93.9713 54.1635C92.2463 52.3982 91.0848 50.17 90.6315 47.7566C90.1782 45.3432 90.4533 42.8513 91.4223 40.5913C92.3914 38.3314 94.0116 36.4033 96.0811 35.0474C98.1506 33.6915 100.578 32.9677 103.06 32.9662C103.618 32.9625 104.175 33.0009 104.726 33.0809C107.763 33.4797 110.55 34.9547 112.57 37.2319C114.59 39.5091 115.706 42.4337 115.71 45.4628Z" fill="#292929"/>
<path d="M103.798 30.6524C103.799 30.8124 103.759 30.97 103.682 31.111C103.595 31.2644 103.468 31.3917 103.314 31.4798C103.16 31.5678 102.985 31.6132 102.807 31.6113C102.55 31.6113 102.304 31.5103 102.122 31.3305C101.94 31.1506 101.838 30.9068 101.838 30.6524C101.838 30.3981 101.94 30.1542 102.122 29.9744C102.304 29.7946 102.55 29.6936 102.807 29.6936H103.018C103.24 29.7394 103.44 29.8601 103.582 30.0349C103.724 30.2098 103.801 30.428 103.798 30.6524Z" fill="#C7EAFB"/>
<path d="M115.509 35.7803C115.514 35.9749 115.459 36.1663 115.353 36.3302C115.247 36.494 115.093 36.6228 114.913 36.7002C114.732 36.7775 114.532 36.7999 114.339 36.7645C114.145 36.7291 113.966 36.6375 113.826 36.5013C113.685 36.3652 113.589 36.1907 113.549 36.0001C113.509 35.8095 113.527 35.6114 113.601 35.4312C113.676 35.251 113.803 35.0967 113.966 34.9881C114.129 34.8795 114.322 34.8215 114.519 34.8214C114.647 34.8201 114.775 34.8438 114.895 34.8912C115.014 34.9387 115.123 35.0089 115.215 35.0979C115.307 35.187 115.38 35.2931 115.431 35.4101C115.481 35.5272 115.508 35.653 115.509 35.7803Z" fill="#C7EAFB"/>
<path d="M92.4034 35.551C92.4097 35.748 92.3563 35.9425 92.2502 36.1093C92.1441 36.2762 91.99 36.408 91.8076 36.4878C91.6253 36.5675 91.423 36.5916 91.2267 36.557C91.0304 36.5224 90.849 36.4307 90.7058 36.2935C90.5626 36.1564 90.464 35.9801 90.4227 35.7872C90.3815 35.5944 90.3994 35.3937 90.4742 35.2109C90.5489 35.0282 90.6772 34.8717 90.8425 34.7614C91.0078 34.6512 91.2026 34.5922 91.402 34.5921C91.663 34.5893 91.9146 34.6885 92.1021 34.868C92.2896 35.0475 92.3978 35.293 92.4034 35.551Z" fill="white"/>
<path d="M102.807 62.1178C103.355 62.1178 103.798 61.6885 103.798 61.159C103.798 60.6294 103.355 60.2001 102.807 60.2001C102.26 60.2001 101.817 60.6294 101.817 61.159C101.817 61.6885 102.26 62.1178 102.807 62.1178Z" fill="white"/>
<path d="M87.2909 47.8808C87.8381 47.8808 88.2818 47.4515 88.2818 46.9219C88.2818 46.3923 87.8381 45.963 87.2909 45.963C86.7437 45.963 86.3 46.3923 86.3 46.9219C86.3 47.4515 86.7437 47.8808 87.2909 47.8808Z" fill="white"/>
<path d="M114.118 57.9489C114.665 57.9489 115.109 57.5196 115.109 56.99C115.109 56.4604 114.665 56.0311 114.118 56.0311C113.571 56.0311 113.127 56.4604 113.127 56.99C113.127 57.5196 113.571 57.9489 114.118 57.9489Z" fill="white"/>
<path d="M92.3928 58.2928C92.9401 58.2928 93.3837 57.8635 93.3837 57.3339C93.3837 56.8044 92.9401 56.3751 92.3928 56.3751C91.8456 56.3751 91.402 56.8044 91.402 57.3339C91.402 57.8635 91.8456 58.2928 92.3928 58.2928Z" fill="white"/>
<path d="M145.731 31.0902C144.012 35.2973 142.015 39.3883 139.754 43.3366C137.96 36.4534 134.584 30.0725 129.888 24.6908C123.036 16.5821 114.635 11.3605 107.351 9.99514C111.392 7.76774 115.588 5.82436 119.905 4.17941C125.935 6.00333 132.375 10.2765 137.646 16.53C141.31 20.7918 144.061 25.7454 145.731 31.0902Z" fill="#7769AF"/>
<path d="M103.798 30.6524C103.799 30.8124 103.759 30.97 103.682 31.111C103.595 31.2644 103.468 31.3917 103.314 31.4798C103.16 31.5678 102.985 31.6132 102.807 31.6113C102.55 31.6113 102.304 31.5103 102.122 31.3305C101.94 31.1506 101.838 30.9068 101.838 30.6524C101.838 30.3981 101.94 30.1542 102.122 29.9744C102.304 29.7946 102.55 29.6936 102.807 29.6936H103.018C103.24 29.7394 103.44 29.8601 103.582 30.0349C103.724 30.2098 103.801 30.428 103.798 30.6524Z" fill="white"/>
<path d="M115.509 35.7803C115.514 35.9749 115.459 36.1663 115.353 36.3302C115.247 36.494 115.093 36.6228 114.913 36.7002C114.732 36.7775 114.532 36.7999 114.339 36.7645C114.145 36.7291 113.966 36.6375 113.826 36.5013C113.685 36.3652 113.589 36.1907 113.549 36.0001C113.509 35.8095 113.527 35.6114 113.601 35.4312C113.676 35.251 113.803 35.0967 113.966 34.9881C114.129 34.8795 114.322 34.8215 114.519 34.8214C114.647 34.8201 114.775 34.8438 114.895 34.8912C115.014 34.9387 115.123 35.0089 115.215 35.0979C115.307 35.187 115.38 35.2931 115.431 35.4101C115.481 35.5272 115.508 35.653 115.509 35.7803Z" fill="white"/>
</g>
<defs>
<linearGradient id="paint0_linear_6_24" x1="38.749" y1="89.0485" x2="38.749" y2="132.615" gradientUnits="userSpaceOnUse">
<stop stop-color="#FF6F00"/>
<stop offset="1" stop-color="#FFF682"/>
</linearGradient>
<clipPath id="clip0_6_24">
<rect width="150" height="150" fill="white"/>
</clipPath>
</defs>
</svg>
